<svg xmlns="http://www.w3.org/2000/svg" viewBox="0 0 75 75.001">
  <g id="Embleme" transform="translate(-266.263 -142.955)">
    <g id="Groupe_166" data-name="Groupe 166" transform="translate(270.092 142.955)">
      <path id="Tracé_58" data-name="Tracé 58" d="M349.288,161.207a1.5,1.5,0,0,1-.8,1.343l-32.214,16.731a1.384,1.384,0,0,1-1.311,0L282.748,162.55a1.525,1.525,0,0,1,0-2.685l32.214-16.742a1.329,1.329,0,0,1,.656-.168,1.358,1.358,0,0,1,.656.168l32.214,16.742A1.5,1.5,0,0,1,349.288,161.207Z" transform="translate(-281.946 -142.955)" fill="#ff647c"/>
    </g>
    <g id="Groupe_167" data-name="Groupe 167" transform="translate(266.263 164.338)">
      <path id="Tracé_59" data-name="Tracé 59" d="M302.38,251.322V284.8a1.514,1.514,0,0,1-.682,1.29,1.389,1.389,0,0,1-1.426.063l-33.2-17.12a1.478,1.478,0,0,1-.808-1.343V234.213a1.5,1.5,0,0,1,.692-1.28,1.393,1.393,0,0,1,1.416-.073l1,.524,32.2,16.595A1.5,1.5,0,0,1,302.38,251.322Z" transform="translate(-266.263 -232.699)" fill="#fecf5e"/>
    </g>
    <g id="Groupe_168" data-name="Groupe 168" transform="translate(305.146 164.341)">
      <path id="Tracé_60" data-name="Tracé 60" d="M463.808,234.223V267.7a1.478,1.478,0,0,1-.808,1.343l-33.2,17.12a1.389,1.389,0,0,1-1.427-.063,1.514,1.514,0,0,1-.682-1.29V251.333a1.5,1.5,0,0,1,.808-1.343l32.2-16.6,1-.524a1.546,1.546,0,0,1,.64-.157,1.477,1.477,0,0,1,.776.231A1.5,1.5,0,0,1,463.808,234.223Z" transform="translate(-427.691 -232.713)" fill="#92a3d0"/>
    </g>
  </g>
</svg>
