<svg xmlns="http://www.w3.org/2000/svg" width="285" height="230.583" viewBox="0 0 285 230.583">
  <g id="undraw_social_girl_562b" transform="translate(0 -47.966)">
    <path id="Tracé_4" data-name="Tracé 4" d="M463.508,381.938c0,42.9-63.8,77.678-142.5,77.678-42.279,0-80.258-10.035-106.352-25.978-17.027-10.4-29-23.315-33.8-37.589a43.9,43.9,0,0,1-2.349-14.111c0-42.9,118.089-236.4,142.5-77.674S463.508,339.041,463.508,381.938Z" transform="translate(-178.508 -181.066)" fill="#ff647c"/>
    <path id="Tracé_5" data-name="Tracé 5" d="M424.786,655.166c0,18.508-57.381,33.515-128.168,33.515-27.264,0-52.539-2.226-73.311-6.023-19.363-12.15-32.975-27.242-38.436-43.919,21.975-10.2,63.785-17.088,111.747-17.088C367.405,621.651,424.786,636.658,424.786,655.166Z" transform="translate(-182.15 -434.461)" opacity="0.1"/>
    <path id="Tracé_6" data-name="Tracé 6" d="M429.112,229.056c-10.347-17.483-30.817-18.3-30.817-18.3s-19.947-2.551-32.743,24.076c-11.927,24.818-28.387,48.781-2.65,54.59l4.649-14.47L370.43,290.5a100.732,100.732,0,0,0,11.012.188c27.563-.89,53.812.26,52.967-9.63C433.285,267.912,439.067,245.878,429.112,229.056Z" transform="translate(-289.736 -162.726)" fill="#2f2e41"/>
    <path id="Tracé_7" data-name="Tracé 7" d="M372.11,599.354a40.831,40.831,0,0,1-1.32,5.682c-.648,1.82-1.647,3.5-2.239,5.344-1.887,5.863.729,12.4,4.907,16.926a27.619,27.619,0,0,0,13.467,8,54.94,54.94,0,0,0,11.573,1.216c10.756.365,21.789.691,31.981-2.766a55.575,55.575,0,0,0,9.292-4.221,6.956,6.956,0,0,0,2.411-1.9,6.633,6.633,0,0,0,.87-3.894c-.023-4.56-.947-9.1-.728-13.651.122-2.523.594-5.044.361-7.558a13.944,13.944,0,0,0-10.657-12.011,28.947,28.947,0,0,0-8.834,0,225.245,225.245,0,0,1-22.99,1.028c-7.843-.05-15.637-1.247-23.441-1.372-2.308-.037-2.261.675-3,2.908A54.4,54.4,0,0,0,372.11,599.354Z" transform="translate(-301.261 -406.794)" fill="#2f2e41"/>
    <path id="Tracé_8" data-name="Tracé 8" d="M417.207,335.791a13.693,13.693,0,0,1-1.97,5.641c-1.364,1.866-3.589,2.932-5.057,4.718-2.209,2.688-2.336,6.47-2.345,9.949-.008,3.205.057,6.624,1.844,9.284a16.226,16.226,0,0,0,4.65,4.1c6.7,4.517,13.946,9.116,22.028,9.265,3.348.062,6.939-.8,9.142-3.325a13.726,13.726,0,0,0,2.213-3.949,52.439,52.439,0,0,0,3.712-15.964,18.748,18.748,0,0,0-.707-7.669c-.982-2.737-2.967-4.99-4.279-7.585a16.885,16.885,0,0,1-1.625-9.992,1.079,1.079,0,0,0-.057-.724,1.055,1.055,0,0,0-.869-.352l-16.025-1.154a34.869,34.869,0,0,1-4.449-.509c-.864-.176-3.146-1.4-3.969-1.076C417.92,327.051,417.519,334.154,417.207,335.791Z" transform="translate(-325.217 -237.362)" fill="#a0616a"/>
    <path id="Tracé_9" data-name="Tracé 9" d="M417.207,336.96a13.692,13.692,0,0,1-1.97,5.641c-1.364,1.866-3.589,2.932-5.057,4.718-2.209,2.688-2.336,6.47-2.345,9.949-.008,3.205.057,6.624,1.844,9.284a16.226,16.226,0,0,0,4.65,4.1c6.7,4.517,13.946,9.116,22.028,9.265,3.348.062,6.939-.8,9.142-3.325a13.726,13.726,0,0,0,2.213-3.949,52.439,52.439,0,0,0,3.712-15.964,18.747,18.747,0,0,0-.707-7.669c-.982-2.737-2.967-4.99-4.279-7.585a16.885,16.885,0,0,1-1.625-9.992,1.079,1.079,0,0,0-.057-.724,1.055,1.055,0,0,0-.869-.352L427.863,329.2a34.891,34.891,0,0,1-4.449-.509c-.864-.176-3.146-1.4-3.969-1.076C417.92,328.221,417.519,335.324,417.207,336.96Z" transform="translate(-325.217 -238.116)" opacity="0.1"/>
    <circle id="Ellipse_3" data-name="Ellipse 3" cx="23.51" cy="23.51" r="23.51" transform="translate(83.433 61.973)" fill="#ffe6c9"/>
    <path id="Tracé_10" data-name="Tracé 10" d="M426.092,400.544a14.42,14.42,0,0,0,4.129,3.3,12.976,12.976,0,0,0,5.159.982c4.238.119,8.832-.657,11.78-3.7,3.8-3.927,3.675-10.262,6.654-14.844a3.307,3.307,0,0,1,.96-1.05,3.111,3.111,0,0,1,1.633-.375c3.762-.035,7.039,2.4,10,4.73a13.172,13.172,0,0,1,3.519,3.584,12.146,12.146,0,0,1,1.187,3.634,159.615,159.615,0,0,1,2.415,21.789c.261,4.031.521,8.066.5,12.106-.064,13.308-3.157,26.394-6.233,39.343-.4,1.668-.939,3.533-2.456,4.332a6.057,6.057,0,0,1-2.143.523,262.267,262.267,0,0,1-26.509,2.207q-5.192.08-10.38-.251a5.592,5.592,0,0,1-1.749-.3,4.931,4.931,0,0,1-1.906-1.619c-4.8-6.046-5.081-14.4-5.05-22.123q.113-28.306,2.023-56.567c.105-1.555.128-3.444-.992-4.667A58.433,58.433,0,0,0,426.092,400.544Z" transform="translate(-332.213 -277.963)" fill="#d0cde1"/>
    <path id="Tracé_11" data-name="Tracé 11" d="M377.252,355.26c-.794,1.437-6.648,5.007-7.778,6.2-6.315,6.656-17.84,6.406-23.615,13.535a22.214,22.214,0,0,0-3.864,8.793c-1.1,4.431-1.684,9.264.155,13.443,1.77,4.021,5.5,6.8,8.026,10.392,2.778,3.943,4.027,8.731,5.223,13.4.884,3.45,1.775,6.986,1.431,10.53-.391,4.03-2.342,7.721-3.493,11.6s-1.35,8.506,1.312,11.557c1.956,2.241,5.024,3.13,7.957,3.63a91.431,91.431,0,0,0,11.341.987c3.352.148,7.048.177,9.625-1.972a9.677,9.677,0,0,0,3.032-7.093,45.778,45.778,0,0,0-.781-7.892c-.357-2.721-.495-5.467-.61-8.209q-.773-18.457-.211-36.938a31.434,31.434,0,0,0-.374-7.665c-.719-3.3-2.5-6.241-3.986-9.269a35.079,35.079,0,0,1-3.889-18.53C377.2,355.169,380.078,350.145,377.252,355.26Z" transform="translate(-282.514 -258.099)" fill="#91a2d0"/>
    <path id="Tracé_12" data-name="Tracé 12" d="M492.141,352.691c1.209,1.243,5.319,1.653,6.858,2.453a24.032,24.032,0,0,0,4.508,1.561,58.531,58.531,0,0,1,15.837,7.269,9.614,9.614,0,0,1,2.648,2.288,10.489,10.489,0,0,1,1.465,4.137A46.947,46.947,0,0,1,524.8,381.71c-.18,4.037-1.4,7.947-2.6,11.8l-4.508,14.411c-3.365,10.757-6.751,21.619-7.7,32.85a77.272,77.272,0,0,0,.693,18.658,2.212,2.212,0,0,1-.227,1.807,1.78,1.78,0,0,1-1.1.508c-2.176.34-4.281-.769-6.252-1.751a69.236,69.236,0,0,0-19.086-6.245,44.373,44.373,0,0,0,5.928-12.22,73.947,73.947,0,0,0,1.791-8.4l2.1-12.128a119.15,119.15,0,0,0,1.8-13.411,16.79,16.79,0,0,0-.292-5.052,24.5,24.5,0,0,0-1.915-4.556c-3.456-7.188-5.077-15.392-3.717-23.251.6-3.439,1.751-6.883,1.269-10.34-.464-3.324.018-5.907-.835-9.2C486.638,341.686,489.865,350.352,492.141,352.691Z" transform="translate(-373.749 -255.185)" fill="#91a2d0"/>
    <path id="Tracé_13" data-name="Tracé 13" d="M344.826,417.951c-1.575,3.269-4.209,6.054-5.106,9.571a20.906,20.906,0,0,0-.445,5,23.765,23.765,0,0,0,.742,7.522c.5,1.551,1.314,2.981,1.9,4.5a16.32,16.32,0,0,1,1.069,6.669c-.158,3.149-1.228,6.206-1.312,9.358-.131,4.957,2.161,9.617,4.4,14.042a10.323,10.323,0,0,1,15-4.912,3.076,3.076,0,0,0,.676-2.243q.248-8.626.479-17.253c.242-8.894.473-17.907-1.573-26.566-.924-3.91-2.361-7.8-5-10.837-1.388-1.6-6.1-5.8-8.375-4.014-1.024.8-.785,2.994-.947,4.1A17.409,17.409,0,0,1,344.826,417.951Z" transform="translate(-280.625 -291.231)" fill="#91a2d0"/>
    <path id="Tracé_14" data-name="Tracé 14" d="M543.819,397.565a24.063,24.063,0,0,1,.8,7.237q.045,7.457-.2,14.912a27.8,27.8,0,0,1-.969,7.55c-.509,1.6-1.294,3.1-1.819,4.695-1.575,4.779-.714,9.961-.579,14.991a17.043,17.043,0,0,1-.412,4.849c-.831,3.118-3.064,5.637-4.623,8.463-1.48,2.683-2.374,5.691-4.142,8.194s-4.828,4.487-7.8,3.718c-2.248-.582-3.845-2.572-4.95-4.614a22.631,22.631,0,0,1-2.34-14.68c1.109-6.1,4.695-11.52,5.988-17.588,1.776-8.333-.923-16.932-.843-25.451a12.3,12.3,0,0,1,.536-3.945,16.513,16.513,0,0,1,3.481-5.061,63.883,63.883,0,0,0,4.678-6.14c.964-1.437,2.272-5.133,3.98-5.44C538.431,388.567,542.873,394.619,543.819,397.565Z" transform="translate(-393.531 -280.05)" fill="#91a2d0"/>
    <path id="Tracé_15" data-name="Tracé 15" d="M276.984,602.044a23.207,23.207,0,0,0-6.455-.686,16.111,16.111,0,0,0-14.958,18.993,27.064,27.064,0,0,0,2.558,6.99c1.712,3.474,3.765,6.94,6.934,9.167a27.018,27.018,0,0,0,6.12,2.913l16.692,6.288c2.456.925,4.911,1.85,7.391,2.708a144.574,144.574,0,0,0,38.605,7.675,41.8,41.8,0,0,0,11.987-.607,3.9,3.9,0,0,0,2.455-1.326,4.2,4.2,0,0,0,.548-1.812l1.027-7.191a6.023,6.023,0,0,0-.087-3.031,5.8,5.8,0,0,0-2.774-2.615c-10.974-6.3-23.786-9.78-33.023-18.43-2.174-2.036-3.994-5.264-6.636-6.648-3-1.569-6.524-2.464-9.621-3.91C290.977,607.362,284.321,603.731,276.984,602.044Z" transform="translate(-222.463 -415.069)" fill="#2f2e41"/>
    <path id="Tracé_16" data-name="Tracé 16" d="M334.959,623.437c5.9,1.849,30.809,14.656,35.078,19.128-.572.206-19.989-10.675-20.572-10.85a117.329,117.329,0,0,1-15.651-5.516c-1.012-.468-6.573-2.668-6.321-3.944C327.777,620.815,333.911,623.109,334.959,623.437Z" transform="translate(-273.775 -424.081)" opacity="0.1"/>
    <path id="Tracé_17" data-name="Tracé 17" d="M484.695,717.655a1.386,1.386,0,0,0,.935-.275,1.444,1.444,0,0,0,.292-1.076q-.014-4.9-.028-9.8a30.108,30.108,0,0,0-9.061-2.186L462.4,702.393c.332.044-2.256,6.215-1.859,7.039.7,1.452,6.044,2.739,7.552,3.425C473.34,715.24,478.789,717.86,484.695,717.655Z" transform="translate(-357.773 -474.646)" fill="#a0616a"/>
    <path id="Tracé_18" data-name="Tracé 18" d="M399.3,702.518c-2.725.434-5.766.818-7.53,2.938-2.238,2.69-1.285,6.7-.217,10.031a3.252,3.252,0,0,0,3.794,2.714c2.485.157,5.129.281,7.3-.938a32.036,32.036,0,0,0,2.836-2.108,18.181,18.181,0,0,1,5.214-2.384,52.727,52.727,0,0,1,10.466-2.157,16.27,16.27,0,0,0,4.123-.727,4.568,4.568,0,0,0,2.9-2.819c.5-1.78-.532-3.6-1.524-5.156a20.571,20.571,0,0,0-4.389-5.424c-2.689-2.089-4.019-.485-6.728.851A57.079,57.079,0,0,1,399.3,702.518Z" transform="translate(-313.786 -476.086)" fill="#a0616a"/>
    <path id="Tracé_19" data-name="Tracé 19" d="M350.448,709.16l-17.3-5.113a22.9,22.9,0,0,0-6.438-1.248,7.729,7.729,0,0,0-5.913,2.391c-1.341,1.574-1.725,3.726-2.06,5.768l-.715,4.367a21.934,21.934,0,0,0-.4,6.705,7.414,7.414,0,0,0,3.437,5.524c2.394,1.306,5.328.668,8,.122a87.107,87.107,0,0,1,16.395-1.758c2.071-.025,4.243,0,6.072-.969a7.582,7.582,0,0,0,3.7-6.042C355.566,715.178,354.322,710.305,350.448,709.16Z" transform="translate(-267.234 -480.906)" fill="#2f2e41"/>
    <path id="Tracé_20" data-name="Tracé 20" d="M523.16,702.61c2.243-.393,4.222-1.668,6.371-2.42,3.025-1.059,6.3-1.059,9.508-1.047a6.1,6.1,0,0,1,3.409.683c1.412.94,1.773,2.821,2.013,4.5l1.448,10.129a15.89,15.89,0,0,1,.118,5.738,5.4,5.4,0,0,1-3.567,4.171c-2.262.588-4.48-.857-6.616-1.806-5.339-2.373-11.545-1.766-17.111-3.54a3.834,3.834,0,0,1-2.561-1.831,4.165,4.165,0,0,1-.2-1.75c.1-3.256-.591-7.7.389-10.813C517.244,701.824,520.657,702.61,523.16,702.61Z" transform="translate(-393.299 -478.812)" fill="#2f2e41"/>
    <path id="Tracé_21" data-name="Tracé 21" d="M522.075,592.24a30.04,30.04,0,0,1,10.583-.723c2.829.312,5.744,1.1,7.81,3.057,2.514,2.383,3.322,6.07,3.39,9.534a29.785,29.785,0,0,1-6.474,19.022,17.259,17.259,0,0,1-3.7,3.563,24.373,24.373,0,0,1-4.815,2.321l-37.38,14.744c-9.834,3.879-19.7,7.769-29.96,10.326a2.335,2.335,0,0,1-3.142-1.139,77.444,77.444,0,0,1-8.193-14.987,1.01,1.01,0,0,1,.446-1.592l26.439-15.191a26.732,26.732,0,0,0,5.381-3.708,13.356,13.356,0,0,0,2.763-3.846c.548-1.145.6-3.846,1.3-4.692.685-.828,3.03-.895,4.113-1.22a37.343,37.343,0,0,0,4.478-1.693c5.914-2.646,11.181-6.49,16.85-9.588A43.234,43.234,0,0,1,522.075,592.24Z" transform="translate(-356.058 -410.446)" fill="#2f2e41"/>
    <path id="Tracé_22" data-name="Tracé 22" d="M526.739,616.1c-4.542,3.412-10.424,6.548-14.926,10.049-1.536,1.2-27.15,15.6-27.512,17.508,4.2.708,30.955-18.009,34.783-19.877a61.8,61.8,0,0,0,10.584-7.116c.857-.666,4.489-2.669,2.029-3.413C530.31,612.832,527.762,615.419,526.739,616.1Z" transform="translate(-374.469 -419.672)" opacity="0.1"/>
    <path id="Tracé_23" data-name="Tracé 23" d="M448.332,360.015H408.458a6.108,6.108,0,0,0-6.108,6.108v2.237h-.433v5h.433v3.5h-.433v3h.433v36.909a6.108,6.108,0,0,0,6.108,6.108h39.874a6.108,6.108,0,0,0,6.108-6.108V366.123A6.108,6.108,0,0,0,448.332,360.015Z" transform="translate(-321.911 -259.61)" fill="#3f3d56"/>
    <path id="Tracé_24" data-name="Tracé 24" d="M274.585,170.8,254.361,160.2l-27.928,4.334-5.778,25.52,14.384-.553,4.018-9.376v9.221l6.637-.255,3.852-14.927,2.407,15.89,23.594-.482Z" transform="translate(-141.768 -106.152)" fill="#2f2e41"/>
    <path id="Tracé_25" data-name="Tracé 25" d="M359.271,498.62a10.511,10.511,0,0,0,3.775,3.755,7.383,7.383,0,0,0,6.489-.174,11.422,11.422,0,0,0,4.683-4.7c2.2-3.881,2.653-8.525,2.379-12.977s-1.225-8.836-1.646-13.276c-.306-3.228-.331-6.475-.355-9.717A3.232,3.232,0,0,1,375,459.57a3.859,3.859,0,0,1,2.168-1.083c4.436-1.318,7.38-5.476,9.491-9.594,1.41-2.75,2.635-5.756,2.363-8.833s-2.484-6.179-5.558-6.493c-2.534-.259-4.874,1.351-6.7,3.125a28.74,28.74,0,0,0-8.415,16.818c-.4,3.13-.286,6.344-1.138,9.383-1.818,6.487-7.5,10.465-10.338,16.3C353.753,485.626,355.476,492.928,359.271,498.62Z" transform="translate(-291.185 -307.887)" fill="#ffe6c9"/>
    <path id="Tracé_26" data-name="Tracé 26" d="M524.879,447.945A12.259,12.259,0,0,1,518,454.551a9.495,9.495,0,0,1-5.977.366A6.627,6.627,0,0,1,507.648,451a10.549,10.549,0,0,1-.493-2.942c-.284-4.375-.174-8.883,1.414-12.969.613-1.576,1.439-3.07,1.923-4.691a23.522,23.522,0,0,0,.724-5.725l.522-11.936a7.767,7.767,0,0,0-.177-2.588c-.521-1.727-2.135-2.85-3.616-3.88-3.577-2.487-7.112-5.39-8.845-9.387A6.584,6.584,0,0,1,498.49,393c.489-2.37,2.881-3.9,5.245-4.422a11.732,11.732,0,0,1,14.065,9.454c.234,1.347.231,2.723.368,4.083.29,2.886,1.206,5.667,1.78,8.51,1.412,7,.68,14.242,2.076,21.243C523.19,437.72,527.591,441.54,524.879,447.945Z" transform="translate(-381.991 -278.24)" fill="#ffe6c9"/>
    <circle id="Ellipse_4" data-name="Ellipse 4" cx="5.002" cy="5.002" r="5.002" transform="translate(100.975 117.208)" fill="#ec647d"/>
  </g>
</svg>
